<?xml version="1.0" encoding="utf-8"?>
<svg viewBox="0 0 1440 320" xmlns="http://www.w3.org/2000/svg">
  <path fill="#222" fill-opacity="1" d="M 0 169.579 L 10.9 148.279 C 21.8 126.579 44 84.579 65 68.279 C 87.3 52.579 109 62.579 131 84.279 C 152.7 105.579 175 137.579 196 137.579 C 218.2 137.579 240 105.579 262 126.879 C 283.6 148.579 305 222.579 327 254.879 C 349.1 286.579 371 276.579 393 238.879 C 414.5 201.579 436 137.579 458 126.879 C 480 116.579 502 158.579 524 164.279 C 545.5 169.579 567 137.579 589 116.279 C 610.9 94.579 633 84.579 655 78.879 C 676.4 73.579 698 73.579 720 84.279 C 741.8 94.579 764 116.579 785 116.279 C 807.3 116.579 829 94.579 851 121.579 C 872.7 148.579 895 222.579 916 217.579 C 938.2 212.579 960 126.579 982 121.579 C 1003.6 116.579 1025 190.579 1047 201.579 C 1069.1 212.579 1091 158.579 1113 121.579 C 1134.5 84.579 1156 62.579 1178 84.279 C 1200 105.579 1222 169.579 1244 164.279 C 1265.5 158.579 1287 84.579 1309 78.879 C 1330.9 73.579 1353 137.579 1375 148.279 C 1396.4 158.579 1418 116.579 1429 94.879 L 1440 73.579 L 1440 329.579 L 1429.1 329.579 C 1418.2 329.579 1396 329.579 1375 329.579 C 1352.7 329.579 1331 329.579 1309 329.579 C 1287.3 329.579 1265 329.579 1244 329.579 C 1221.8 329.579 1200 329.579 1178 329.579 C 1156.4 329.579 1135 329.579 1113 329.579 C 1090.9 329.579 1069 329.579 1047 329.579 C 1025.5 329.579 1004 329.579 982 329.579 C 960 329.579 938 329.579 916 329.579 C 894.5 329.579 873 329.579 851 329.579 C 829.1 329.579 807 329.579 785 329.579 C 763.6 329.579 742 329.579 720 329.579 C 698.2 329.579 676 329.579 655 329.579 C 632.7 329.579 611 329.579 589 329.579 C 567.3 329.579 545 329.579 524 329.579 C 501.8 329.579 480 329.579 458 329.579 C 436.4 329.579 415 329.579 393 329.579 C 370.9 329.579 349 329.579 327 329.579 C 305.5 329.579 284 329.579 262 329.579 C 240 329.579 218 329.579 196 329.579 C 174.5 329.579 153 329.579 131 329.579 C 109.1 329.579 87 329.579 65 329.579 C 43.6 329.579 22 329.579 11 329.579 L 0 329.579 L 0 169.579 Z"/>
</svg>